<?xml version="1.0" encoding="UTF-8" standalone="no"?>
<!-- Created with Inkscape (http://www.inkscape.org/) -->

<svg
   xmlns:dc="http://purl.org/dc/elements/1.1/"
   xmlns:cc="http://creativecommons.org/ns#"
   xmlns:rdf="http://www.w3.org/1999/02/22-rdf-syntax-ns#"
   xmlns:svg="http://www.w3.org/2000/svg"
   xmlns="http://www.w3.org/2000/svg"
   xmlns:sodipodi="http://sodipodi.sourceforge.net/DTD/sodipodi-0.dtd"
   xmlns:inkscape="http://www.inkscape.org/namespaces/inkscape"
   width="210mm"
   height="297mm"
   viewBox="0 0 744.09448819 1052.3622047"
   id="svg2"
   version="1.1"
   inkscape:version="0.91 r13725"
   sodipodi:docname="drawing 1.svg">
  <defs
     id="defs4" />
  <sodipodi:namedview
     id="base"
     pagecolor="#ffffff"
     bordercolor="#666666"
     borderopacity="1.0"
     inkscape:pageopacity="0.0"
     inkscape:pageshadow="2"
     inkscape:zoom="0.5"
     inkscape:cx="126.18898"
     inkscape:cy="707.54693"
     inkscape:document-units="px"
     inkscape:current-layer="layer1"
     showgrid="false"
     inkscape:window-width="1920"
     inkscape:window-height="1018"
     inkscape:window-x="-8"
     inkscape:window-y="-8"
     inkscape:window-maximized="1" />
  <metadata
     id="metadata7">
    <rdf:RDF>
      <cc:Work
         rdf:about="">
        <dc:format>image/svg+xml</dc:format>
        <dc:type
           rdf:resource="http://purl.org/dc/dcmitype/StillImage" />
        <dc:title></dc:title>
      </cc:Work>
    </rdf:RDF>
  </metadata>
  <g
     inkscape:label="Layer 1"
     inkscape:groupmode="layer"
     id="layer1">
    <g
       id="g4802">
      <path
         id="path4148"
         d="M 437.72461 241.48242 A 250 250 0 0 0 387.92773 244.92773 A 250 250 0 0 0 181.58594 519.48438 A 250 250 0 0 0 444.08398 740.96484 A 250 250 0 0 0 680 491.36133 L 673.67188 435.47266 A 250 250 0 0 0 653.6582 380.30273 A 39.645903 39.645903 0 0 1 630.99219 375.20703 A 39.645903 39.645903 0 0 1 611.12695 338.125 A 60.682508 60.682508 0 0 1 546.94727 340.61914 A 60.682508 60.682508 0 0 1 517.85938 274.80859 A 39.645903 39.645903 0 0 1 486.37891 271.40625 A 39.645903 39.645903 0 0 1 467.10352 244.17578 A 250 250 0 0 0 437.72461 241.48242 z M 432.70312 403.9043 A 87.5 87.5 0 0 1 515.28516 471.80078 L 517.5 491.36133 A 87.5 87.5 0 0 1 434.92969 578.72266 A 87.5 87.5 0 0 1 343.05469 501.20508 A 87.5 87.5 0 0 1 415.27539 405.10938 A 87.5 87.5 0 0 1 432.70312 403.9043 z "
         style="fill:#ffccaa;fill-opacity:1" />
      <path
         sodipodi:nodetypes="scccsccccsccccss"
         inkscape:connector-curvature="0"
         id="path4179"
         d="m 588.73047,446.15625 c -8.4151,0.15571 -9.89009,3.12123 -14.51953,11.34375 1.49603,9.38594 2.00658,8.88264 2.92968,17.4082 2.29927,18.15248 0.6768,36.39584 -4.16406,53.77539 2.49674,26.20401 1.12944,48.1771 -20.13867,48.56836 -1.12244,0.0207 -2.21231,-0.0204 -3.2832,-0.0996 -19.26961,26.76671 -46.93504,47.51908 -78.84766,56.48438 -43.97239,12.91728 -93.77796,3.64391 -129.77734,-24.86328 -38.86241,-29.61513 -62.97441,-67.1423 -58.63867,-116.1211 -4.34543,-4.76356 -9.35595,-11.80741 -17.85547,-12.24218 -10.21638,-0.5226 -16.69121,2.104 -22.24805,6.83398 -3.70916,69.01438 29.41223,132.09795 89.88867,167.25586 62.50604,37.29563 147.73757,35.75874 207.23438,-7.26953 53.6226,-37.88629 85.4574,-105.16173 80.31054,-170.33399 -3.71896,-20.19981 -10.04013,-30.33161 -26.99609,-31.31054 -0.91357,-0.0528 -3.04441,0.55458 -3.89453,0.5703 z"
         style="fill:#ececec;fill-opacity:0.50295859" />
      <path
         id="path4176"
         d="M 427.62891 221.02148 C 336.67178 221.22646 248.33932 270.51571 200.70312 348.10156 C 172.7731 392.68957 159.28111 455.13473 159.68359 506.45898 L 159.68359 506.48047 C 159.85926 524.77797 161.14124 544.31833 165.9375 560.82617 C 168.33563 569.08009 171.56915 576.72144 177.01172 583.09766 C 182.45428 589.47387 191.01798 594.29971 200.3457 594.38672 C 208.26371 594.46062 216.17384 591.00332 221.13672 585.70508 C 226.0996 580.40684 228.59283 574.16405 230.34766 567.82422 C 233.85731 555.14456 234.47769 540.92445 235.93555 527.4375 C 237.39341 513.95055 239.81729 501.47418 243.82617 494.36328 C 247.83505 487.25238 250.95076 484.28662 262.79688 484.89258 C 271.57267 485.34149 273.28559 487.56513 276.31445 494.2168 C 279.34332 500.86846 280.99753 512.23907 282.26562 524.48828 C 283.53373 536.73749 284.42007 549.78605 289.18945 561.82422 C 293.95883 573.86239 305.89957 585.26604 321.88086 585.89844 C 334.70677 586.40598 345.56208 583.73739 353.3125 577.05078 C 361.06292 570.36417 364.1567 560.94387 365.13672 552.42969 C 367.09675 535.40132 362.93071 518.03505 363.05273 506.49414 C 363.05473 506.31769 363.05272 506.14121 363.04688 505.96484 C 362.62725 492.71844 366.64325 475.20336 374.125 460.49414 C 381.60675 445.78492 392.39442 434.25432 403.39844 429.95312 C 403.50713 429.91033 403.61521 429.86612 403.72266 429.82031 C 412.21358 426.22475 421.39544 424.38186 430.62109 424.35938 C 430.68619 424.35924 430.75131 424.35862 430.81641 424.35742 C 449.68366 424.01644 465.67063 427.62657 475.82617 434.43359 C 485.98171 441.24062 491.68939 450.36052 491.61914 467.64258 C 491.61814 467.97953 491.63025 468.31639 491.65625 468.65234 C 491.68525 469.02917 491.70967 469.40868 491.73047 469.79102 C 491.75117 470.17159 491.7669 470.55474 491.7793 470.9375 C 491.7918 471.32203 491.80029 471.70676 491.80469 472.0918 C 491.80869 472.48853 491.80964 472.8776 491.80664 473.25586 C 491.80564 473.42255 491.80707 473.58925 491.8125 473.75586 C 492.37103 491.42313 493.94477 520.98299 501.24219 547.40039 C 504.8909 560.60909 509.88759 573.16629 517.99609 583.30078 C 526.1046 593.43528 538.56884 595.01674 553.06836 594.75 C 562.72445 594.57236 572.02169 596.11648 577.43164 589.15039 C 582.84159 582.1843 584.86362 574.0379 585.80273 565.68359 C 587.68097 548.97498 585.06714 529.88441 582.9043 511.33398 C 580.74146 492.78356 579.10619 474.7419 580.81055 464.06641 C 581.66272 458.72866 583.24914 455.75389 584.32422 454.65234 C 585.3993 453.5508 586.18054 452.79368 590.9043 453.06641 C 594.83856 453.29355 596.53375 454.24515 598.66992 456.44727 C 600.80609 458.64938 603.084 462.66943 604.88867 468.41016 C 608.49802 479.89162 609.95811 497.40358 611.19922 515.29883 C 612.44033 533.19407 613.42832 551.43484 618.38867 567.00586 C 620.86885 574.79137 624.42423 582.19965 630.64453 588.01758 C 636.86483 593.83551 644.95453 596.18778 654.31641 595.79883 C 666.12544 595.30821 677.6933 589.80155 683.58789 580.92969 C 689.48248 572.05782 691.975 561.63285 693.45898 550.26172 C 696.31087 528.40894 694.99945 502.1812 695.00977 476.54297 C 695.95145 475.31599 696.67859 474.09481 697.04883 473.09766 C 699.46163 466.59927 697.96128 465.75612 697.50391 462.80273 C 695.23566 437.90791 690.70463 412.35586 679.93164 388.27148 C 678.15436 383.89689 676.25045 379.58058 674.23828 375.32031 A 39.287778 44.274994 19.28219 0 1 626.81445 385.27148 A 39.287778 44.274994 19.28219 0 1 607.11719 345.9082 A 60.13436 67.767856 19.282175 0 1 542.57227 353.4082 A 60.13436 67.767856 19.282175 0 1 513.8125 283.08984 A 39.287778 44.274994 19.28219 0 1 482.1875 281.67383 A 39.287778 44.274994 19.28219 0 1 466.67188 225.44922 A 39.287778 44.274994 19.28219 0 1 467.55469 223.6875 C 454.33479 221.82216 440.98199 220.91659 427.62891 221.02148 z "
         style="color:#000000;font-style:normal;font-variant:normal;font-weight:normal;font-stretch:normal;font-size:medium;line-height:normal;font-family:sans-serif;text-indent:0;text-align:start;text-decoration:none;text-decoration-line:none;text-decoration-style:solid;text-decoration-color:#000000;letter-spacing:normal;word-spacing:normal;text-transform:none;direction:ltr;block-progression:tb;writing-mode:lr-tb;baseline-shift:baseline;text-anchor:start;white-space:normal;clip-rule:nonzero;display:inline;overflow:visible;visibility:visible;opacity:1;isolation:auto;mix-blend-mode:normal;color-interpolation:sRGB;color-interpolation-filters:linearRGB;solid-color:#000000;solid-opacity:1;fill:#2b1100;fill-opacity:1;fill-rule:nonzero;stroke:none;stroke-width:25;stroke-linecap:round;stroke-linejoin:round;stroke-miterlimit:4;stroke-dasharray:none;stroke-dashoffset:0;stroke-opacity:1;color-rendering:auto;image-rendering:auto;shape-rendering:auto;text-rendering:auto;enable-background:accumulate" />
      <path
         id="path4153"
         d="M 427.67773 233.52148 C 341.22852 233.70894 256.56134 280.96495 211.32031 354.69336 C 185.27133 396.25306 171.79959 457.39405 172.18359 506.36133 C 172.52395 541.81304 177.77192 581.67505 200.46289 581.88672 C 240.15658 582.25699 201.23329 469.22834 263.43555 472.41016 C 314.54071 475.02434 276.0513 571.57511 322.375 573.4082 C 366.01305 575.13502 350.25759 534.27519 350.55273 506.36133 C 349.54401 474.51797 368.6142 430.12804 398.84766 418.31055 C 408.90155 414.05314 419.72251 411.88586 430.58984 411.85938 C 471.57046 411.11874 504.28658 426.49859 504.11914 467.69336 C 504.15564 468.16728 504.18719 468.64013 504.21289 469.11328 C 504.23859 469.58643 504.25814 470.06085 504.27344 470.5332 C 504.28874 471.00556 504.29929 471.47574 504.30469 471.94727 C 504.30969 472.41879 504.31064 472.89068 504.30664 473.36133 C 505.40064 507.9667 510.99474 578.02172 552.83789 577.25195 C 606.65408 576.26191 533.1568 437.21034 591.625 440.58594 C 645.47312 443.69481 602.17227 589.49493 654.79688 587.30859 C 688.19767 585.92093 682.21148 527.5729 682.48633 473.36133 C 682.38169 463.41574 686.61572 474.47545 685.13477 464.625 C 682.94683 440.16438 678.54737 415.67227 668.42383 393.14062 C 667.45053 390.73985 666.43617 388.35622 665.38672 385.99023 A 39.475361 48.842952 27.138928 0 1 619.78125 394.88672 A 39.475361 48.842952 27.138928 0 1 601.37305 353.75977 A 60.421479 74.759628 27.138918 0 1 533.99805 365.125 A 60.421479 74.759628 27.138918 0 1 507.78711 291.32617 A 39.475361 48.842952 27.138928 0 1 475.03906 291.44531 A 39.475361 48.842952 27.138928 0 1 460.44141 235.36328 C 449.57321 234.062 438.62411 233.43336 427.67773 233.52148 z "
         style="fill:#502d16;fill-opacity:1" />
      <path
         sodipodi:nodetypes="cccccccccccccccccc"
         inkscape:connector-curvature="0"
         id="path4261"
         d="m 426.37891,301.27734 c -86.89386,0.59401 -168.70638,68.9363 -183.49219,155.00977 -0.63257,3.43463 -1.15896,6.8858 -1.58789,10.34766 13.31801,-6.53002 30.37716,-5.90508 42.52539,2.31445 9.74271,-60.08241 58.94284,-113.32057 119.83594,-122.75391 9.79532,-1.71021 19.73904,-2.62291 29.68554,-2.56445 58.85652,0.30397 113.11843,41.24474 134.69922,95.1543 8.75696,-8.21367 22.52601,-11.07004 33.8086,-6.28711 4.01336,1.42748 7.55147,3.58728 10.63086,6.26757 -6.85215,-23.59179 -18.50882,-45.76392 -33.76954,-65.08984 -17.80042,9.50984 -36.39922,10.7073 -51.38867,3.3086 -20.15755,-10.05302 -30.87478,-34.21814 -27.81836,-62.72461 -9.27107,-3.62605 -18.86546,-6.46879 -28.70898,-8.42188 -14.55506,-3.28915 -29.50327,-4.76907 -44.41992,-4.56055 z m 135.67268,259.61017 c -2.1022,4.37683 1.23598,-3.89727 -1.26893,0.26917 0.38919,-0.16232 0.0703,-0.16017 0.45501,-0.36229 3.55331,-3.43812 0.18325,4.66453 0.81392,0.0931 z"
         style="fill:#ececec;fill-opacity:0.50295859" />
      <rect
         style="fill:#00ccff;fill-opacity:1;stroke:none;stroke-width:25;stroke-linecap:round;stroke-linejoin:round;stroke-miterlimit:4;stroke-dasharray:none;stroke-opacity:1"
         id="rect4739"
         width="57.794769"
         height="15.298615"
         x="-86.754982"
         y="478.65262"
         ry="7.6493077"
         transform="matrix(0.82118801,-0.57065774,0.57065774,0.82118801,0,0)" />
      <rect
         style="fill:#ff2a7f;fill-opacity:1;stroke:none;stroke-width:25;stroke-linecap:round;stroke-linejoin:round;stroke-miterlimit:4;stroke-dasharray:none;stroke-opacity:1"
         id="rect4741"
         width="57.794769"
         height="15.298615"
         x="56.215408"
         y="458.66592"
         ry="7.6493077"
         transform="matrix(0.82118801,-0.57065774,0.57065774,0.82118801,0,0)" />
      <rect
         style="fill:#00ff00;fill-opacity:1;stroke:none;stroke-width:25;stroke-linecap:round;stroke-linejoin:round;stroke-miterlimit:4;stroke-dasharray:none;stroke-opacity:1"
         id="rect4743"
         width="57.794769"
         height="15.298615"
         x="-4.2743115"
         y="545.71185"
         ry="7.6493077"
         transform="matrix(0.82118801,-0.57065774,0.57065774,0.82118801,0,0)" />
      <rect
         style="fill:#00ff00;fill-opacity:1;stroke:none;stroke-width:25;stroke-linecap:round;stroke-linejoin:round;stroke-miterlimit:4;stroke-dasharray:none;stroke-opacity:1"
         id="rect4745"
         width="57.794769"
         height="15.298615"
         x="-518.58417"
         y="184.82999"
         ry="7.6493077"
         transform="matrix(-0.55530413,-0.83164735,0.83164735,-0.55530413,0,0)" />
      <rect
         style="fill:#ff2a7f;fill-opacity:1;stroke:none;stroke-width:25;stroke-linecap:round;stroke-linejoin:round;stroke-miterlimit:4;stroke-dasharray:none;stroke-opacity:1"
         id="rect4747"
         width="57.794769"
         height="15.298615"
         x="-261.52856"
         y="721.8728"
         ry="7.6493077"
         transform="matrix(0.4310372,-0.90233416,0.90233416,0.4310372,0,0)" />
      <rect
         style="fill:#00ff00;fill-opacity:1;stroke:none;stroke-width:25;stroke-linecap:round;stroke-linejoin:round;stroke-miterlimit:4;stroke-dasharray:none;stroke-opacity:1"
         id="rect4749"
         width="57.794769"
         height="15.298615"
         x="271.42218"
         y="720.24963"
         ry="7.6493077"
         transform="matrix(0.82118801,-0.57065774,0.57065774,0.82118801,0,0)" />
      <rect
         style="fill:#00ccff;fill-opacity:1;stroke:none;stroke-width:25;stroke-linecap:round;stroke-linejoin:round;stroke-miterlimit:4;stroke-dasharray:none;stroke-opacity:1"
         id="rect4751"
         width="57.794769"
         height="15.298615"
         x="-708.2439"
         y="-6.4928641"
         ry="7.6493077"
         transform="matrix(-0.77024382,-0.63774952,0.63774952,-0.77024382,0,0)" />
      <rect
         style="fill:#ffff00;fill-opacity:1;stroke:none;stroke-width:25;stroke-linecap:round;stroke-linejoin:round;stroke-miterlimit:4;stroke-dasharray:none;stroke-opacity:1"
         id="rect4753"
         width="57.794769"
         height="15.298615"
         x="116.64922"
         y="546.93683"
         ry="7.6493077"
         transform="matrix(0.82118801,-0.57065774,0.57065774,0.82118801,0,0)" />
      <rect
         style="fill:#ffff00;fill-opacity:1;stroke:none;stroke-width:25;stroke-linecap:round;stroke-linejoin:round;stroke-miterlimit:4;stroke-dasharray:none;stroke-opacity:1"
         id="rect4755"
         width="57.794769"
         height="15.298615"
         x="471.08978"
         y="255.99052"
         ry="7.6493077"
         transform="matrix(0.75672169,0.65373717,-0.65373717,0.75672169,0,0)" />
      <rect
         style="fill:#00ccff;fill-opacity:1;stroke:none;stroke-width:25;stroke-linecap:round;stroke-linejoin:round;stroke-miterlimit:4;stroke-dasharray:none;stroke-opacity:1"
         id="rect4759"
         width="57.794769"
         height="15.298615"
         x="423.2951"
         y="-41.020699"
         ry="7.6493077"
         transform="matrix(0.75672169,0.65373717,-0.65373717,0.75672169,0,0)" />
      <rect
         style="fill:#ffff00;fill-opacity:1;stroke:none;stroke-width:25;stroke-linecap:round;stroke-linejoin:round;stroke-miterlimit:4;stroke-dasharray:none;stroke-opacity:1"
         id="rect4761"
         width="57.794769"
         height="15.298615"
         x="797.71594"
         y="-42.041962"
         ry="7.6493077"
         transform="matrix(0.75672169,0.65373717,-0.65373717,0.75672169,0,0)" />
      <rect
         style="fill:#ffff00;fill-opacity:1;stroke:none;stroke-width:25;stroke-linecap:round;stroke-linejoin:round;stroke-miterlimit:4;stroke-dasharray:none;stroke-opacity:1"
         id="rect4763"
         width="57.794769"
         height="15.298615"
         x="420.15195"
         y="99.129654"
         ry="7.6493077"
         transform="matrix(0.75672169,0.65373717,-0.65373717,0.75672169,0,0)" />
    </g>
  </g>
</svg>
