<?xml version="1.0" encoding="UTF-8" standalone="no"?>
<!-- Created with Inkscape (http://www.inkscape.org/) -->

<svg
   xmlns:dc="http://purl.org/dc/elements/1.1/"
   xmlns:cc="http://creativecommons.org/ns#"
   xmlns:rdf="http://www.w3.org/1999/02/22-rdf-syntax-ns#"
   xmlns:svg="http://www.w3.org/2000/svg"
   xmlns="http://www.w3.org/2000/svg"
   xmlns:sodipodi="http://sodipodi.sourceforge.net/DTD/sodipodi-0.dtd"
   xmlns:inkscape="http://www.inkscape.org/namespaces/inkscape"
   width="210mm"
   height="297mm"
   viewBox="0 0 744.09448819 1052.3622047"
   id="svg2"
   version="1.1"
   inkscape:version="0.91 r13725"
   shape-rendering="crispEdges"
   sodipodi:docname="wine glass.svg">
  <defs
     id="defs4" />
  <sodipodi:namedview
     id="base"
     pagecolor="#ffffff"
     bordercolor="#666666"
     borderopacity="1.0"
     inkscape:pageopacity="0.0"
     inkscape:pageshadow="2"
     inkscape:zoom="1"
     inkscape:cx="446"
     inkscape:cy="441.9598"
     inkscape:document-units="px"
     inkscape:current-layer="layer1"
     showgrid="false"
     showborder="false"
     inkscape:window-width="944"
     inkscape:window-height="1002"
     inkscape:window-x="960"
     inkscape:window-y="0"
     inkscape:window-maximized="0" />
  <metadata
     id="metadata7">
    <rdf:RDF>
      <cc:Work
         rdf:about="">
        <dc:format>image/svg+xml</dc:format>
        <dc:type
           rdf:resource="http://purl.org/dc/dcmitype/StillImage" />
        <dc:title></dc:title>
      </cc:Work>
    </rdf:RDF>
  </metadata>
  <g
     inkscape:label="Layer 1"
     inkscape:groupmode="layer"
     id="layer1">
    <path
       inkscape:connector-curvature="0"
       style="color:#000000;font-style:normal;font-variant:normal;font-weight:normal;font-stretch:normal;font-size:medium;line-height:normal;font-family:sans-serif;text-indent:0;text-align:start;text-decoration:none;text-decoration-line:none;text-decoration-style:solid;text-decoration-color:#000000;letter-spacing:normal;word-spacing:normal;text-transform:none;direction:ltr;block-progression:tb;writing-mode:lr-tb;baseline-shift:baseline;text-anchor:start;white-space:normal;clip-rule:nonzero;display:inline;overflow:visible;visibility:visible;opacity:1;isolation:auto;mix-blend-mode:normal;color-interpolation:sRGB;color-interpolation-filters:linearRGB;solid-color:#000000;solid-opacity:1;fill:#e6e6e6;fill-opacity:1;fill-rule:nonzero;stroke:none;stroke-width:20;stroke-linecap:round;stroke-linejoin:round;stroke-miterlimit:4;stroke-dasharray:none;stroke-dashoffset:0;stroke-opacity:1;color-rendering:auto;image-rendering:auto;shape-rendering:auto;text-rendering:auto;enable-background:accumulate"
       d="m 428.39076,355.94473 c -5.15356,-0.0228 -10.30922,0.0292 -15.39473,0.1538 a 7.7971247,7.7971247 0 0 0 -0.002,0 c -18.97787,0.46694 -35.32057,1.87725 -47.21966,3.96364 -5.94955,1.0432 -10.73083,2.19027 -14.66535,3.81747 -1.96726,0.8136 -3.76243,1.67132 -5.60819,3.37893 -1.29623,1.1992 -2.68573,3.42814 -3.16118,5.95842 l 0,-0.0183 c -0.006,0.0265 -0.0105,0.0542 -0.0168,0.0807 -0.0332,0.1834 -0.0932,0.35106 -0.11573,0.53753 -6.76786,29.0645 -9.40186,61.10761 -7.65473,92.85873 a 7.7971247,7.7971247 0 0 0 0,0.009 c 2.56903,45.70007 13.67056,85.55974 30.43315,114.04287 11.92436,20.26196 27.29209,35.20901 44.64169,41.07851 a 28.45666,165.28252 0 0 1 5.92035,68.69463 l 0.72025,36.94889 a 28.45666,165.28252 0 0 1 -5.39196,96.67468 l 30.17277,0 a 28.45666,165.28252 0 0 1 -5.10875,-77.30106 28.45666,165.28252 0 0 1 6.5599,-125.02932 c 21.36627,-7.12954 38.9472,-27.54637 51.75281,-54.83176 14.91785,-31.78601 23.74705,-73.8133 23.74687,-119.79114 a 7.7971247,7.7971247 0 0 0 -0.0122,-0.43703 l -2.1303,-37.9082 a 7.7971247,7.7971247 0 0 0 -0.038,-0.44616 c -1.35045,-11.8388 -3.3419,-23.35403 -5.89599,-34.41051 a 7.7971247,7.7971247 0 0 0 -1.64301,-4.13419 l -1.92777,-2.44245 a 7.7971247,7.7971247 0 0 0 -1.98411,-1.77854 c -6.93687,-4.34101 -16.01503,-5.59163 -29.08555,-7.13396 -13.07051,-1.54234 -29.33681,-2.45744 -46.89227,-2.53534 z"
       id="path4162" />
    <path
       inkscape:connector-curvature="0"
       style="fill:#7c0000;fill-opacity:1;stroke:none;stroke-width:25;stroke-linecap:round;stroke-linejoin:round;stroke-miterlimit:4;stroke-dasharray:none;stroke-opacity:1"
       d="m 371.72869,482.47393 c -9.14591,0.0158 -18.23836,1.8336 -27.2598,6.25382 a 84.200527,169.57051 0 0 0 86.27752,127.74586 84.200527,169.57051 0 0 0 71.55736,-97.9157 c -7.44498,0.87986 -14.9776,0.31751 -22.56525,-1.20904 -17.41284,-3.50328 -35.14326,-12.04219 -52.95728,-19.78628 -17.81402,-7.74408 -35.7064,-14.68913 -53.3943,-15.07191 -0.55275,-0.0119 -1.10588,-0.0177 -1.65825,-0.0168 z"
       id="path4136" />
    <path
       inkscape:connector-curvature="0"
       style="fill:#aa0000;fill-opacity:1;stroke:none;stroke-width:25;stroke-linecap:round;stroke-linejoin:round;stroke-miterlimit:4;stroke-dasharray:none;stroke-opacity:1"
       d="m 479.44768,471.07482 c -0.55236,-7.8e-4 -1.1055,0.005 -1.65824,0.0168 -17.6879,0.38278 -35.58028,7.32783 -53.39431,15.07192 -17.81401,7.74408 -35.54444,16.28299 -52.95728,19.78627 -8.11516,1.63268 -16.16759,2.16334 -24.1169,1.005 a 84.200527,169.57051 0 0 0 83.42546,109.51885 84.200527,169.57051 0 0 0 77.93453,-138.13692 c -9.66829,-5.15587 -19.42005,-7.24487 -29.23326,-7.26188 z"
       id="path4183" />
    <path
       inkscape:connector-curvature="0"
       style="opacity:0.658;fill:#ffffff;fill-opacity:0.49704147;stroke:none;stroke-width:25;stroke-linecap:round;stroke-linejoin:round;stroke-miterlimit:4;stroke-dasharray:none;stroke-opacity:1"
       d="m 354.61023,386.35504 a 84.200527,169.57051 0 0 0 -5.25644,79.89275 84.200527,169.57051 0 0 0 61.8713,144.6831 C 405.80371,604.75451 400.77296,597.6982 396.2019,589.93102 377.73444,558.55095 365.50337,514.63767 362.67305,464.28956 a 8.5901479,8.5901479 0 0 1 0,-0.0107 c -1.39009,-25.26261 -0.25647,-50.68936 3.28604,-74.93019 -3.83332,-0.75866 -7.62268,-1.73146 -11.34886,-2.99367 z"
       id="path4165" />
    <g
       id="g4206"
       transform="matrix(0.77963451,0,0,0.77963451,94.17146,126.8451)">
      <path
         style="opacity:1;fill:#666666;fill-opacity:0.49704147;stroke:none;stroke-width:25;stroke-linecap:round;stroke-linejoin:round;stroke-miterlimit:4;stroke-dasharray:none;stroke-opacity:1"
         id="path4138"
         sodipodi:type="arc"
         sodipodi:cx="426"
         sodipodi:cy="311.86221"
         sodipodi:rx="97.684113"
         sodipodi:ry="14.01948"
         sodipodi:start="0"
         sodipodi:end="6.0577237"
         sodipodi:open="true"
         d="m 523.68411,311.86221 a 97.684113,14.01948 0 0 1 -92.18102,13.99722 97.684113,14.01948 0 0 1 -102.56716,-12.42013 97.684113,14.01948 0 0 1 80.62466,-15.39661 97.684113,14.01948 0 0 1 111.65124,10.68538" />
      <path
         id="path4201"
         d="m 428.82227,297.84961 a 89.83815,12.893439 0 0 1 84.74218,10.00391 l 2.27344,2.88281 a 89.83815,12.893439 0 0 1 -84.77734,12.87305 89.83815,12.893439 0 0 1 -94.32813,-11.42188 89.83815,12.893439 0 0 1 74.14844,-14.16016 89.83815,12.893439 0 0 1 8.75195,-0.15234 97.684113,14.01948 0 0 0 -10.07226,0.16797 97.684113,14.01948 0 0 0 -80.625,15.39648 97.684113,14.01948 0 0 0 102.56836,12.41993 97.684113,14.01948 0 0 0 92.17968,-13.99805 l -2.47265,-3.13281 a 97.684113,14.01948 0 0 0 -92.38867,-10.87891 z"
         style="opacity:1;fill:#ffffff;fill-opacity:1;stroke:none;stroke-width:25;stroke-linecap:round;stroke-linejoin:round;stroke-miterlimit:4;stroke-dasharray:none;stroke-opacity:1"
         inkscape:connector-curvature="0" />
    </g>
    <g
       transform="matrix(0.6684129,0,0,0.6684129,141.55185,619.95601)"
       id="g4219">
      <path
         d="m 523.68411,311.86221 a 97.684113,14.01948 0 0 1 -92.18102,13.99722 97.684113,14.01948 0 0 1 -102.56716,-12.42013 97.684113,14.01948 0 0 1 80.62466,-15.39661 97.684113,14.01948 0 0 1 111.65124,10.68538"
         sodipodi:open="true"
         sodipodi:end="6.0577237"
         sodipodi:start="0"
         sodipodi:ry="14.01948"
         sodipodi:rx="97.684113"
         sodipodi:cy="311.86221"
         sodipodi:cx="426"
         sodipodi:type="arc"
         id="path4221"
         style="opacity:1;fill:#666666;fill-opacity:0.49704147;stroke:none;stroke-width:25;stroke-linecap:round;stroke-linejoin:round;stroke-miterlimit:4;stroke-dasharray:none;stroke-opacity:1" />
      <path
         inkscape:connector-curvature="0"
         style="opacity:1;fill:#ffffff;fill-opacity:1;stroke:none;stroke-width:25;stroke-linecap:round;stroke-linejoin:round;stroke-miterlimit:4;stroke-dasharray:none;stroke-opacity:1"
         d="m 428.82227,297.84961 a 89.83815,12.893439 0 0 1 84.74218,10.00391 l 2.27344,2.88281 a 89.83815,12.893439 0 0 1 -84.77734,12.87305 89.83815,12.893439 0 0 1 -94.32813,-11.42188 89.83815,12.893439 0 0 1 74.14844,-14.16016 89.83815,12.893439 0 0 1 8.75195,-0.15234 97.684113,14.01948 0 0 0 -10.07226,0.16797 97.684113,14.01948 0 0 0 -80.625,15.39648 97.684113,14.01948 0 0 0 102.56836,12.41993 97.684113,14.01948 0 0 0 92.17968,-13.99805 l -2.47265,-3.13281 a 97.684113,14.01948 0 0 0 -92.38867,-10.87891 z"
         id="path4223" />
    </g>
    <g
       id="g4225"
       transform="matrix(0.59394358,0,0,0.59394358,174.27213,639.85899)"
       style="fill:#e6e6e6;fill-opacity:1">
      <path
         style="opacity:1;fill:#e6e6e6;fill-opacity:1;stroke:none;stroke-width:25;stroke-linecap:round;stroke-linejoin:round;stroke-miterlimit:4;stroke-dasharray:none;stroke-opacity:1"
         id="path4227"
         sodipodi:type="arc"
         sodipodi:cx="426"
         sodipodi:cy="311.86221"
         sodipodi:rx="97.684113"
         sodipodi:ry="14.01948"
         sodipodi:start="0"
         sodipodi:end="6.0577237"
         sodipodi:open="true"
         d="m 523.68411,311.86221 a 97.684113,14.01948 0 0 1 -92.18102,13.99722 97.684113,14.01948 0 0 1 -102.56716,-12.42013 97.684113,14.01948 0 0 1 80.62466,-15.39661 97.684113,14.01948 0 0 1 111.65124,10.68538" />
      <path
         id="path4229"
         d="m 428.82227,297.84961 a 89.83815,12.893439 0 0 1 84.74218,10.00391 l 2.27344,2.88281 a 89.83815,12.893439 0 0 1 -84.77734,12.87305 89.83815,12.893439 0 0 1 -94.32813,-11.42188 89.83815,12.893439 0 0 1 74.14844,-14.16016 89.83815,12.893439 0 0 1 8.75195,-0.15234 97.684113,14.01948 0 0 0 -10.07226,0.16797 97.684113,14.01948 0 0 0 -80.625,15.39648 97.684113,14.01948 0 0 0 102.56836,12.41993 97.684113,14.01948 0 0 0 92.17968,-13.99805 l -2.47265,-3.13281 a 97.684113,14.01948 0 0 0 -92.38867,-10.87891 z"
         style="opacity:1;fill:#e6e6e6;fill-opacity:1;stroke:none;stroke-width:25;stroke-linecap:round;stroke-linejoin:round;stroke-miterlimit:4;stroke-dasharray:none;stroke-opacity:1"
         inkscape:connector-curvature="0" />
    </g>
  </g>
</svg>
